<svg id="Camada_1" data-name="Camada 1" xmlns="http://www.w3.org/2000/svg" viewBox="0 0 44.57 8.7"><defs><style>.cls-1{fill:#bf3086;}</style></defs><path class="cls-1" d="M4.28,10.42a2.17,2.17,0,0,1-.9-.9,2.81,2.81,0,0,1-.32-1.38V4.65a2.77,2.77,0,0,1,.32-1.39,2.17,2.17,0,0,1,.9-.9A2.87,2.87,0,0,1,5.66,2,2.83,2.83,0,0,1,7,2.36a2.14,2.14,0,0,1,.91.9,2.88,2.88,0,0,1,.32,1.39V8.14a2.93,2.93,0,0,1-.32,1.38,2.14,2.14,0,0,1-.91.9,2.83,2.83,0,0,1-1.37.32A2.87,2.87,0,0,1,4.28,10.42Zm2-1.16a1.1,1.1,0,0,0,.43-.45,1.54,1.54,0,0,0,.15-.7V4.66A1.45,1.45,0,0,0,6.74,4a1,1,0,0,0-.43-.45,1.23,1.23,0,0,0-.65-.16A1.29,1.29,0,0,0,5,3.53,1,1,0,0,0,4.57,4a1.45,1.45,0,0,0-.15.68V8.11a1.54,1.54,0,0,0,.15.7A1.1,1.1,0,0,0,5,9.26a1.4,1.4,0,0,0,.66.15A1.33,1.33,0,0,0,6.31,9.26Z" transform="translate(-3.06 -2.04)"/><path class="cls-1" d="M9.69,4.57h1.37v6.08H9.69Zm2.88,1.27a1.51,1.51,0,0,0-.32,0,1.14,1.14,0,0,0-.87.31,1.2,1.2,0,0,0-.32.88l-.12-1.37a2.23,2.23,0,0,1,.7-.86,1.65,1.65,0,0,1,1-.3,1,1,0,0,1,.35.06.68.68,0,0,1,.28.18L12.81,6A.67.67,0,0,0,12.57,5.84Z" transform="translate(-3.06 -2.04)"/><path class="cls-1" d="M14.12,2.13h1.34v8.52H14.12Zm.69,6.18,2.55-3.74H18.8L14.87,10ZM16,7.43l.92-.85,2.14,4.07H17.59Z" transform="translate(-3.06 -2.04)"/><path class="cls-1" d="M21,8.66a.85.85,0,0,0,.22.62.81.81,0,0,0,.62.22.84.84,0,0,0,.61-.21.85.85,0,0,0,.21-.62l.08,1a1.68,1.68,0,0,1-.51.8,1.33,1.33,0,0,1-.86.29,1.55,1.55,0,0,1-1.26-.53,2.29,2.29,0,0,1-.44-1.53V4.57H21ZM22.7,4.57H24v6.08H22.7Z" transform="translate(-3.06 -2.04)"/><path class="cls-1" d="M25,4.57h2.77V5.78H25Zm1,5.71a1.79,1.79,0,0,1-.37-1.21V2.8H27V8.92a.58.58,0,0,0,.09.35.35.35,0,0,0,.28.12h.46v1.29h-.68A1.44,1.44,0,0,1,26,10.28Z" transform="translate(-3.06 -2.04)"/><path class="cls-1" d="M29,2.15H30.3V3.48H29Zm0,2.42H30.3v6.08H29Z" transform="translate(-3.06 -2.04)"/><path class="cls-1" d="M31.71,4.57h1.35v6.08H31.71Zm3.06,2.11A1,1,0,0,0,34.54,6a1,1,0,0,0-1.26,0,1,1,0,0,0-.22.68l-.12-1a2,2,0,0,1,.61-.86,1.49,1.49,0,0,1,.9-.29A1.51,1.51,0,0,1,35.68,5a2.38,2.38,0,0,1,.43,1.51v4.14H34.77Z" transform="translate(-3.06 -2.04)"/><path class="cls-1" d="M37.57,2.13h1.34v8.52H37.57Zm3,4.55A1,1,0,0,0,40.4,6a.86.86,0,0,0-.65-.25.78.78,0,0,0-.62.24.92.92,0,0,0-.22.67l-.12-1a1.89,1.89,0,0,1,.62-.84,1.41,1.41,0,0,1,.89-.3A1.51,1.51,0,0,1,41.53,5,2.32,2.32,0,0,1,42,6.51v4.14H40.62Z" transform="translate(-3.06 -2.04)"/><path class="cls-1" d="M44.28,10.48a1.68,1.68,0,0,1-.75-.74,2.54,2.54,0,0,1-.26-1.18V6.62a2.45,2.45,0,0,1,.26-1.16,1.68,1.68,0,0,1,.75-.74,2.86,2.86,0,0,1,2.34,0,1.68,1.68,0,0,1,.75.74,2.45,2.45,0,0,1,.25,1.16v2a2.5,2.5,0,0,1-.25,1.17,1.71,1.71,0,0,1-.75.73,2.76,2.76,0,0,1-2.34,0Zm1.79-1.25a1,1,0,0,0,.22-.69V6.66A1,1,0,0,0,46.07,6a.78.78,0,0,0-.62-.24.8.8,0,0,0-.62.24,1,1,0,0,0-.22.68V8.54a1,1,0,0,0,.22.69.92.92,0,0,0,1.24,0Z" transform="translate(-3.06 -2.04)"/></svg>